<svg width="62" height="62" viewBox="0 0 62 62" fill="none" xmlns="http://www.w3.org/2000/svg">
<path d="M7.75233 2.15778C10.9801 2.15778 13.5989 9.83425 13.5989 19.3055H7.75233C4.93347 19.3055 3.52693 19.3055 2.65401 18.3481C1.78399 17.3878 1.9348 16.1246 2.23641 13.601C3.04263 6.93057 5.20607 2.15778 7.75233 2.15778Z" stroke="#435585" stroke-width="4" stroke-linecap="round" stroke-linejoin="round"/>
<path d="M13.5989 19.4599V49.7313C13.5989 54.0497 13.5989 56.2103 14.9387 57.062C17.1283 58.451 20.5126 55.5359 22.215 54.4784C23.6215 53.6039 24.3233 53.1695 25.1035 53.1438C25.9474 53.1152 26.6637 53.5353 28.1833 54.4784L33.7254 57.9223C35.2218 58.8511 35.9671 59.3169 36.7994 59.3169C37.6318 59.3169 38.38 58.8511 39.8735 57.9223L45.4126 54.4784C46.8221 53.6039 47.5239 53.1695 48.304 53.1438C49.1479 53.1152 49.8643 53.5353 51.3839 54.4784C53.0862 55.5359 56.4706 58.451 58.6631 57.062C60 56.2103 60 54.0526 60 49.7313V19.4599C60 11.3032 60 7.22779 57.4508 4.69279C54.9046 2.15778 50.801 2.15778 42.5996 2.15778H7.79875" stroke="#435585" stroke-width="4" stroke-linecap="round" stroke-linejoin="round"/>
<path d="M36.7995 19.3055C40.004 19.3055 42.5996 21.2261 42.5996 23.5925C42.5996 25.9589 40.004 27.8794 36.7995 27.8794C33.5949 27.8794 30.9993 29.8 30.9993 32.1663C30.9993 34.5327 33.5949 36.4533 36.7995 36.4533M36.7995 19.3055C34.2764 19.3055 32.1246 20.4973 31.3299 22.1635M36.7995 19.3055V16.4476M36.7995 36.4533C39.3225 36.4533 41.4744 35.2615 42.269 33.5953M36.7995 36.4533V39.3112" stroke="#435585" stroke-width="4" stroke-linecap="round" stroke-linejoin="round"/>
</svg>
