<svg width="292" height="218" viewBox="0 0 292 218" fill="none" xmlns="http://www.w3.org/2000/svg">
<path d="M55.6 0.00986897C59.77 0.00986897 63.93 0.00986897 68.1 0.00986897C75.09 0.00986897 82.07 0.00986897 89.06 0.00986897C97.08 0.019869 105.11 0.019869 113.13 0.00986897C120.08 0.00986897 127.03 0.00986897 133.98 0.00986897C138.11 0.00986897 142.23 0.00986897 146.36 0.00986897C189.38 -0.020131 227.81 0.919868 260.38 32.8299C282 54.7499 291.21 83.7899 291.13 114.14C290.23 140.42 278.08 165.36 260.13 184.14C259.36 185.03 259.36 185.03 258.57 185.94C243.47 202.54 218.27 213.98 196.13 216.14C192.06 216.31 187.99 216.34 183.91 216.37C182.69 216.38 181.47 216.39 180.22 216.4C176.87 216.43 173.52 216.46 170.17 216.48C167.33 216.5 164.48 216.52 161.64 216.55C154.85 216.6 148.06 216.65 141.28 216.7C135.19 216.74 129.11 216.79 123.03 216.85C82.04 217.21 41.11 217.05 0.129997 216.14C0.109997 188.26 0.089998 160.37 0.079998 132.49C0.079998 119.54 0.0699976 106.6 0.0599976 93.6499C0.0499976 82.3699 0.0399971 71.0899 0.0399971 59.8099C0.0399971 53.8299 0.0299988 47.8599 0.0299988 41.8799C0.0199988 36.2599 0.0199966 30.6499 0.0199966 25.0299C0.0199966 22.9599 0.0199983 20.8899 0.00999832 18.8199C0.00999832 16.0099 0.00999832 13.1999 0.00999832 10.3899C0.00999832 9.55987 0.01 8.72987 0 7.86987C0.02 2.25987 0.0199972 2.25987 1.13 1.13987C4.1 0.889869 7.04 0.719869 10.01 0.589869C10.98 0.549869 11.95 0.509869 12.95 0.459869C27.16 -0.0801311 41.38 -0.000131026 55.6 0.00986897ZM107.13 62.1399C110.14 64.5799 113.07 66.8299 116.41 68.7799C117.24 69.2699 118.07 69.7499 118.92 70.2499C119.82 70.7699 120.71 71.2999 121.63 71.8299C122.58 72.3899 123.53 72.9399 124.51 73.5199C126.59 74.7399 128.67 75.9499 130.76 77.1699C134.32 79.2499 137.88 81.3399 141.43 83.4299C145.79 85.9799 150.16 88.5399 154.52 91.0999C161.48 95.1699 168.44 99.2599 175.39 103.37C178.72 105.33 178.72 105.33 182.13 107.14C182.46 108.13 182.79 109.12 183.13 110.14C181.9 110.48 181.9 110.48 180.63 110.83C177.87 111.87 175.95 112.8 173.52 114.37C168.89 117.31 164.18 120.11 159.45 122.89C158.51 123.44 157.58 123.99 156.62 124.56C146.63 130.45 136.62 136.32 126.61 142.18C124.91 143.18 123.2 144.18 121.49 145.19C119.2 146.52 116.9 147.85 114.6 149.17C113.5 149.81 112.4 150.44 111.27 151.09C109.78 151.94 109.78 151.94 108.27 152.8C107.56 153.24 106.86 153.69 106.13 154.14C106.13 154.47 106.13 154.8 106.13 155.14C114.67 155.82 123.14 156.23 131.7 156.2C132.6 156.19 133.5 156.19 134.43 156.19C144.37 156.16 154.31 156.06 164.25 155.88C166.32 155.85 168.38 155.82 170.45 155.8C173.51 155.76 176.56 155.71 179.61 155.66C180.98 155.65 180.98 155.65 182.37 155.64C195.03 155.35 206.1 150.45 215.48 141.96C224.43 132.16 229.53 119.42 229.13 106.14C227.65 93.3999 222.74 81.8699 213.13 73.1399C199.84 62.8799 186.97 61.5599 170.8 61.7499C168.96 61.7599 167.12 61.7699 165.27 61.7699C160.46 61.7899 155.65 61.8299 150.83 61.8699C145.91 61.9099 140.98 61.9299 136.05 61.9499C126.41 61.9899 116.77 62.0599 107.13 62.1399Z" fill="#3594D4"/>
<path d="M104.259 157.122C105.459 157.152 105.459 157.152 106.689 157.182C107.969 157.222 107.969 157.222 109.269 157.262C110.159 157.292 111.039 157.312 111.949 157.332C114.759 157.412 117.569 157.492 120.379 157.582C122.289 157.632 124.199 157.692 126.109 157.742C130.789 157.872 135.459 158.002 140.129 158.142C138.859 159.612 137.589 161.072 136.329 162.542C134.929 164.252 134.929 164.252 134.129 167.142C133.139 167.802 132.149 168.462 131.129 169.142C130.129 170.802 129.129 172.472 128.129 174.142C124.809 178.782 121.319 183.072 117.199 187.022C112.489 191.572 108.879 196.792 105.129 202.142C102.709 205.472 100.119 208.302 97.1289 211.142C96.4289 211.842 95.7289 212.552 95.0089 213.272C91.1889 215.762 87.8989 215.672 83.4889 215.602C82.1989 215.602 82.1989 215.602 80.8889 215.602C78.0489 215.592 75.2289 215.562 72.3989 215.532C70.4289 215.522 68.4589 215.522 66.4989 215.522C61.3289 215.502 56.1589 215.462 50.9989 215.422C45.7189 215.382 40.4489 215.362 35.1689 215.342C24.8289 215.292 14.4789 215.232 4.12891 215.142C4.12891 214.482 4.12891 213.822 4.12891 213.142C4.78891 213.142 5.44891 213.142 6.12891 213.142C6.12891 212.482 6.12891 211.822 6.12891 211.142C6.83891 210.772 7.5389 210.392 8.2589 210.012C12.7289 207.592 17.1389 205.192 21.3789 202.392C24.8789 200.152 28.0989 199.072 32.1289 198.142C32.1289 197.482 32.1289 196.822 32.1289 196.142C34.4789 194.612 36.8189 193.212 39.2589 191.832C40.8189 190.932 42.3789 190.032 43.9289 189.132C44.7689 188.652 45.6089 188.172 46.4789 187.682C51.1589 184.972 55.7989 182.212 60.4489 179.452C67.0789 175.532 73.7189 171.632 80.3889 167.772C82.4789 166.532 84.5389 165.272 86.5989 163.982C87.1889 163.612 87.7789 163.252 88.3789 162.872C90.0289 161.832 91.6789 160.792 93.3189 159.742C97.0589 157.612 99.9889 157.002 104.259 157.122Z" fill="#167CC1"/>
</svg>
