<svg width="25" height="20" viewBox="0 0 25 20" fill="none" xmlns="http://www.w3.org/2000/svg">
<g clip-path="url(#clip0_7_96)">
<path fill-rule="evenodd" clip-rule="evenodd" d="M7.5 7.5C7.5 8.82608 8.02678 10.0979 8.96447 11.0355C9.90215 11.9732 11.1739 12.5 12.5 12.5C13.8261 12.5 15.0979 11.9732 16.0355 11.0355C16.9732 10.0979 17.5 8.82608 17.5 7.5C17.5 6.17392 16.9732 4.90215 16.0355 3.96447C15.0979 3.02678 13.8261 2.5 12.5 2.5C11.1739 2.5 9.90215 3.02678 8.96447 3.96447C8.02678 4.90215 7.5 6.17392 7.5 7.5ZM15 7.5C15 8.16304 14.7366 8.79893 14.2678 9.26777C13.7989 9.73661 13.163 10 12.5 10C11.837 10 11.2011 9.73661 10.7322 9.26777C10.2634 8.79893 10 8.16304 10 7.5C10 6.83696 10.2634 6.20107 10.7322 5.73223C11.2011 5.26339 11.837 5 12.5 5C13.163 5 13.7989 5.26339 14.2678 5.73223C14.7366 6.20107 15 6.83696 15 7.5Z" fill="#435585"/>
<path d="M21.25 22.5C21.25 22.8315 21.1183 23.1495 20.8839 23.3839C20.6495 23.6183 20.3315 23.75 20 23.75C19.6685 23.75 19.3505 23.6183 19.1161 23.3839C18.8817 23.1495 18.75 22.8315 18.75 22.5V19.375C18.75 16.2575 15.9925 13.75 12.52 13.75C9.0375 13.75 6.25 16.2663 6.25 19.375L6.2525 22.5C6.2525 22.8315 6.1208 23.1495 5.88638 23.3839C5.65196 23.6183 5.33402 23.75 5.0025 23.75C4.67098 23.75 4.35304 23.6183 4.11862 23.3839C3.8842 23.1495 3.7525 22.8315 3.7525 22.5L3.75 19.375C3.75 14.825 7.71125 11.25 12.52 11.25C17.325 11.25 21.25 14.8213 21.25 19.375V22.5Z" fill="#435585"/>
</g>
<defs>
<clipPath id="clip0_7_96">
<rect width="25" height="20" fill="white"/>
</clipPath>
</defs>
</svg>
