<svg width="34" height="34" viewBox="0 0 34 34" fill="none" xmlns="http://www.w3.org/2000/svg">
<g clip-path="url(#clip0_21_117)">
<path d="M15.47 4.06301C15.6259 3.79549 15.8492 3.57352 16.1177 3.41924C16.3862 3.26496 16.6904 3.18378 17 3.18378C17.3096 3.18378 17.6139 3.26496 17.8823 3.41924C18.1508 3.57352 18.3741 3.79549 18.53 4.06301L22.4896 10.8602L30.1793 12.5262C30.4817 12.5919 30.7617 12.7358 30.9912 12.9434C31.2208 13.1511 31.3919 13.4153 31.4875 13.7097C31.5831 14.0041 31.5998 14.3184 31.5361 14.6213C31.4724 14.9242 31.3303 15.2051 31.1242 15.436L25.8825 21.3024L26.6758 29.1295C26.7071 29.4377 26.657 29.7487 26.5305 30.0315C26.404 30.3143 26.2056 30.559 25.9549 30.741C25.7043 30.9231 25.4103 31.0363 25.1023 31.0692C24.7942 31.1021 24.483 31.0537 24.1995 30.9287L17 27.7553L9.80051 30.9287C9.51706 31.0537 9.20578 31.1021 8.89774 31.0692C8.58971 31.0363 8.2957 30.9231 8.04508 30.741C7.79445 30.559 7.59598 30.3143 7.46948 30.0315C7.34298 29.7487 7.29288 29.4377 7.32418 29.1295L8.11751 21.3024L2.87584 15.4374C2.66933 15.2065 2.527 14.9255 2.46305 14.6224C2.39909 14.3194 2.41577 14.0048 2.5114 13.7102C2.60703 13.4155 2.77827 13.1511 3.00803 12.9434C3.23778 12.7356 3.51802 12.5918 3.82076 12.5262L11.5104 10.8602L15.47 4.06301Z" fill="#FFD233"/>
</g>
<defs>
<clipPath id="clip0_21_117">
<rect width="34" height="34" fill="white"/>
</clipPath>
</defs>
</svg>
